<svg width="24" height="24" viewBox="0 0 24 24" fill="none" xmlns="http://www.w3.org/2000/svg">
<path d="M12.0002 17.0004C14.7617 17.0004 17.0004 14.7617 17.0004 12.0002C17.0004 9.23866 14.7617 7 12.0002 7C9.23866 7 7 9.23866 7 12.0002C7 14.7617 9.23866 17.0004 12.0002 17.0004Z" fill="url(#paint0_linear_101_2374)"/>
<path d="M7.99977 1.99961H4.49963V0.499553C4.49954 0.404009 4.47208 0.310492 4.4205 0.230069C4.36892 0.149646 4.29537 0.085685 4.20857 0.0457569C4.12177 0.0058287 4.02535 -0.00839501 3.93072 0.00476929C3.83608 0.0179336 3.7472 0.0579347 3.6746 0.120038L0.174461 3.12015C0.11974 3.1671 0.0758173 3.22532 0.0457042 3.29082C0.015591 3.35633 0 3.42757 0 3.49967C0 3.57177 0.015591 3.64301 0.0457042 3.70852C0.0758173 3.77402 0.11974 3.83224 0.174461 3.87918L3.6746 6.8793C3.7472 6.9414 3.83608 6.9814 3.93072 6.99457C4.02535 7.00773 4.12177 6.99351 4.20857 6.95358C4.29537 6.91365 4.36892 6.84969 4.4205 6.76927C4.47208 6.68885 4.49954 6.59533 4.49963 6.49979V4.99973H7.99977C8.13238 4.99973 8.25956 4.94705 8.35333 4.85328C8.4471 4.7595 8.49978 4.63232 8.49978 4.49971V2.49963C8.49978 2.36702 8.4471 2.23984 8.35333 2.14606C8.25956 2.05229 8.13238 1.99961 7.99977 1.99961Z" fill="url(#paint1_linear_101_2374)"/>
<path d="M23.8253 20.1206L20.3252 17.1205C20.2526 17.0584 20.1637 17.0184 20.0691 17.0053C19.9744 16.9921 19.878 17.0063 19.7912 17.0462C19.7044 17.0862 19.6309 17.1501 19.5793 17.2306C19.5277 17.311 19.5002 17.4045 19.5002 17.5V19.0001H16C15.8674 19.0001 15.7402 19.0528 15.6465 19.1466C15.5527 19.2403 15.5 19.3675 15.5 19.5001V21.5002C15.5 21.6328 15.5527 21.76 15.6465 21.8538C15.7402 21.9475 15.8674 22.0002 16 22.0002H19.5002V23.5003C19.5002 23.5958 19.5277 23.6893 19.5793 23.7698C19.6309 23.8502 19.7044 23.9141 19.7912 23.9541C19.878 23.994 19.9744 24.0082 20.0691 23.9951C20.1637 23.9819 20.2526 23.9419 20.3252 23.8798L23.8253 20.8797C23.88 20.8327 23.924 20.7745 23.9541 20.709C23.9842 20.6435 23.9998 20.5723 23.9998 20.5002C23.9998 20.4281 23.9842 20.3568 23.9541 20.2913C23.924 20.2258 23.88 20.1676 23.8253 20.1206Z" fill="url(#paint2_linear_101_2374)"/>
<g filter="url(#filter0_bi_101_2374)">
<path d="M12 21C16.9706 21 21 16.9706 21 12C21 7.02944 16.9706 3 12 3C7.02944 3 3 7.02944 3 12C3 16.9706 7.02944 21 12 21Z" fill="#1D1D1D" fill-opacity="0.05"/>
<path d="M12 21C16.9706 21 21 16.9706 21 12C21 7.02944 16.9706 3 12 3C7.02944 3 3 7.02944 3 12C3 16.9706 7.02944 21 12 21Z" fill="url(#paint3_linear_101_2374)" fill-opacity="0.2"/>
<path d="M20.85 12C20.85 16.8877 16.8877 20.85 12 20.85C7.11228 20.85 3.15 16.8877 3.15 12C3.15 7.11228 7.11228 3.15 12 3.15C16.8877 3.15 20.85 7.11228 20.85 12Z" stroke="url(#paint4_linear_101_2374)" stroke-opacity="0.1" stroke-width="0.3"/>
</g>
<g filter="url(#filter1_i_101_2374)">
<path d="M11.9992 18.9238C15.8228 18.9238 18.9223 15.8242 18.9223 12.0007C18.9223 8.1772 15.8228 5.07764 11.9992 5.07764C8.17574 5.07764 5.07617 8.1772 5.07617 12.0007C5.07617 15.8242 8.17574 18.9238 11.9992 18.9238Z" fill="white" fill-opacity="0.1"/>
</g>
<defs>
<filter id="filter0_bi_101_2374" x="-3" y="-3" width="30" height="30" filterUnits="userSpaceOnUse" color-interpolation-filters="sRGB">
<feFlood flood-opacity="0" result="BackgroundImageFix"/>
<feGaussianBlur in="BackgroundImageFix" stdDeviation="3"/>
<feComposite in2="SourceAlpha" operator="in" result="effect1_backgroundBlur_101_2374"/>
<feBlend mode="normal" in="SourceGraphic" in2="effect1_backgroundBlur_101_2374" result="shape"/>
<feColorMatrix in="SourceAlpha" type="matrix" values="0 0 0 0 0 0 0 0 0 0 0 0 0 0 0 0 0 0 127 0" result="hardAlpha"/>
<feOffset dy="2"/>
<feGaussianBlur stdDeviation="1.5"/>
<feComposite in2="hardAlpha" operator="arithmetic" k2="-1" k3="1"/>
<feColorMatrix type="matrix" values="0 0 0 0 1 0 0 0 0 1 0 0 0 0 1 0 0 0 0.15 0"/>
<feBlend mode="normal" in2="shape" result="effect2_innerShadow_101_2374"/>
</filter>
<filter id="filter1_i_101_2374" x="5.07617" y="5.07764" width="13.8462" height="15.8462" filterUnits="userSpaceOnUse" color-interpolation-filters="sRGB">
<feFlood flood-opacity="0" result="BackgroundImageFix"/>
<feBlend mode="normal" in="SourceGraphic" in2="BackgroundImageFix" result="shape"/>
<feColorMatrix in="SourceAlpha" type="matrix" values="0 0 0 0 0 0 0 0 0 0 0 0 0 0 0 0 0 0 127 0" result="hardAlpha"/>
<feOffset dy="2"/>
<feGaussianBlur stdDeviation="1"/>
<feComposite in2="hardAlpha" operator="arithmetic" k2="-1" k3="1"/>
<feColorMatrix type="matrix" values="0 0 0 0 1 0 0 0 0 1 0 0 0 0 1 0 0 0 0.1 0"/>
<feBlend mode="normal" in2="shape" result="effect1_innerShadow_101_2374"/>
</filter>
<linearGradient id="paint0_linear_101_2374" x1="7" y1="7" x2="18.7802" y2="9.9912" gradientUnits="userSpaceOnUse">
<stop stop-color="#75A5FF"/>
<stop offset="0.703125" stop-color="#2339FF"/>
</linearGradient>
<linearGradient id="paint1_linear_101_2374" x1="0" y1="0" x2="9.73265" y2="3.00107" gradientUnits="userSpaceOnUse">
<stop stop-color="#75A5FF"/>
<stop offset="0.703125" stop-color="#2339FF"/>
</linearGradient>
<linearGradient id="paint2_linear_101_2374" x1="15.5" y1="17.0005" x2="25.2327" y2="20.0016" gradientUnits="userSpaceOnUse">
<stop stop-color="#75A5FF"/>
<stop offset="0.703125" stop-color="#2339FF"/>
</linearGradient>
<linearGradient id="paint3_linear_101_2374" x1="3" y1="3" x2="24.2034" y2="8.38395" gradientUnits="userSpaceOnUse">
<stop stop-color="#87FFE1"/>
<stop offset="0.776042" stop-color="#5C6DFF"/>
</linearGradient>
<linearGradient id="paint4_linear_101_2374" x1="3.5625" y1="3.81818" x2="21" y2="3.81818" gradientUnits="userSpaceOnUse">
<stop stop-color="#3CDEB6"/>
<stop offset="0.65625" stop-color="#364AFF"/>
</linearGradient>
</defs>
</svg>
