<svg width="44" height="53" viewBox="0 0 44 53" fill="none" xmlns="http://www.w3.org/2000/svg">
<path d="M5.926 13.2429C2.89635 14.4334 0.611083 17.725 0.611083 20.8983L0.611084 31.7536C0.611084 35.4917 3.74365 37.5419 7.31264 36.1394L38.2477 23.9835C41.2774 22.793 43.5626 19.5014 43.5626 16.3281L43.5626 5.47291C43.5626 1.73472 40.4301 -0.315413 36.8611 1.08702L5.926 13.2429Z" fill="#4778D6"/>
<path d="M5.926 39.5853C2.89635 38.3782 0.611083 35.0405 0.611083 31.8228L0.611083 21.7324C0.611083 17.3303 2.7758 13.8405 6.32949 12.5137L9.94838 11.1625C7.36202 11.5023 7.79563 15.6151 10.5408 16.7815L39.1728 28.9469C41.6907 30.0167 43.5626 32.8066 43.5626 35.4893L43.5626 47.4641C43.5626 51.2547 40.4301 53.3335 36.8611 51.9114L5.926 39.5853Z" fill="#8759F2"/>
<path fill-rule="evenodd" clip-rule="evenodd" d="M8.71648 12.0394C7.65224 13.3194 8.37924 16.062 10.5485 16.9779L32.2073 26.1223L7.31784 35.802C3.74602 37.1911 0.610962 35.1604 0.610962 31.4578L0.610961 21.8541C0.618717 19.6838 1.15979 17.7384 2.13916 16.1698C3.08956 14.8181 4.41708 13.7115 5.93011 13.1231L8.71648 12.0394Z" fill="#8759F2"/>
</svg>
