<svg width="173" height="32" viewBox="0 0 173 32" fill="none" xmlns="http://www.w3.org/2000/svg">
<path d="M3.2174 7.72699C1.38346 8.4571 0.000121464 10.4758 0.000121566 12.4219L0.000121915 19.0792C0.000122035 21.3718 1.89636 22.6291 4.05677 21.769L22.7827 14.314C24.6166 13.5839 26 11.5652 26 9.61909L26 2.96177C26 0.669209 24.1037 -0.588104 21.9433 0.271981L3.2174 7.72699Z" fill="#4778D6"/>
<path d="M3.2174 23.8822C1.38346 23.1419 0.000121514 21.0949 0.00012141 19.1216L0.000121086 12.9333C0.000120945 10.2336 1.31049 8.09336 3.46164 7.27965L5.65227 6.45101C4.08666 6.65942 4.34914 9.18171 6.01087 9.89703L23.3427 17.3579C24.8668 18.014 26 19.7249 26 21.3702L26 28.7142C26 31.0388 24.1038 32.3137 21.9433 31.4416L3.2174 23.8822Z" fill="#8759F2"/>
<path fill-rule="evenodd" clip-rule="evenodd" d="M4.90644 6.98887C4.2623 7.7739 4.70239 9.4558 6.01546 10.0175L19.1263 15.6256L4.05987 21.562C1.89775 22.4139 -3.47214e-08 21.1685 -1.53688e-07 18.8978L-4.6247e-07 13.0039C0.00535005 11.6748 0.332685 10.4833 0.924704 9.52248C1.50003 8.69326 2.30376 8.01437 3.21984 7.65342L4.90644 6.98887Z" fill="#8759F2"/>
<path d="M40.334 9.742L45.194 19.786C45.398 20.194 45.5 20.5 45.5 20.704C45.5 21.136 45.152 21.526 44.456 21.874C44.048 22.078 43.724 22.18 43.484 22.18C43.256 22.18 43.064 22.126 42.908 22.018C42.764 21.91 42.656 21.796 42.584 21.676C42.524 21.556 42.434 21.376 42.314 21.136L41.378 19.192H36.392L35.456 21.136C35.336 21.376 35.24 21.55 35.168 21.658C35.108 21.766 35 21.88 34.844 22C34.7 22.108 34.508 22.162 34.268 22.162C34.04 22.162 33.722 22.06 33.314 21.856C32.618 21.52 32.27 21.136 32.27 20.704C32.27 20.5 32.372 20.194 32.576 19.786L37.436 9.724C37.568 9.448 37.766 9.226 38.03 9.058C38.306 8.89 38.594 8.806 38.894 8.806C39.542 8.806 40.022 9.118 40.334 9.742ZM38.876 14.062L37.688 16.528H40.082L38.876 14.062ZM46.1321 9.634C46.1321 9.358 46.1381 9.154 46.1501 9.022C46.1741 8.878 46.2281 8.716 46.3121 8.536C46.4801 8.212 46.9481 8.05 47.7161 8.05C48.4481 8.05 48.9041 8.212 49.0841 8.536C49.1801 8.716 49.2341 8.878 49.2461 9.022C49.2701 9.166 49.2821 9.376 49.2821 9.652V17.986C49.2821 18.418 49.3181 18.694 49.3901 18.814C49.4621 18.922 49.6181 18.976 49.8581 18.976C50.1101 18.976 50.2781 18.988 50.3621 19.012C50.4461 19.024 50.5481 19.072 50.6681 19.156C50.9081 19.312 51.0281 19.738 51.0281 20.434C51.0281 21.19 50.9081 21.652 50.6681 21.82C50.3561 22.036 49.6121 22.072 48.4361 21.928C47.5121 21.808 46.9121 21.502 46.6361 21.01C46.3001 20.422 46.1321 19.486 46.1321 18.202V9.634ZM52.0208 24.574V14.062C52.0208 13.786 52.0268 13.582 52.0388 13.45C52.0628 13.318 52.1168 13.168 52.2008 13C52.3688 12.676 52.7708 12.514 53.4068 12.514C54.0428 12.514 54.4688 12.598 54.6848 12.766C54.9128 12.922 55.0448 13.156 55.0808 13.468C55.5368 12.844 56.2508 12.532 57.2228 12.532C58.2068 12.532 59.1368 12.994 60.0128 13.918C60.8888 14.842 61.3268 15.916 61.3268 17.14C61.3268 18.364 60.8888 19.438 60.0128 20.362C59.1488 21.286 58.2248 21.748 57.2408 21.748C56.2568 21.748 55.5428 21.472 55.0988 20.92V24.556C55.0988 24.832 55.0868 25.036 55.0628 25.168C55.0508 25.3 54.9968 25.45 54.9008 25.618C54.8168 25.798 54.6668 25.924 54.4508 25.996C54.2348 26.068 53.9408 26.104 53.5688 26.104C53.1968 26.104 52.8968 26.068 52.6688 25.996C52.4528 25.924 52.2968 25.804 52.2008 25.636C52.1168 25.468 52.0628 25.318 52.0388 25.186C52.0268 25.054 52.0208 24.85 52.0208 24.574ZM55.5848 16.096C55.3088 16.42 55.1708 16.774 55.1708 17.158C55.1708 17.542 55.3088 17.896 55.5848 18.22C55.8728 18.532 56.2328 18.688 56.6648 18.688C57.1088 18.688 57.4808 18.532 57.7808 18.22C58.0928 17.908 58.2488 17.554 58.2488 17.158C58.2488 16.762 58.1048 16.408 57.8168 16.096C57.5288 15.772 57.1508 15.61 56.6828 15.61C56.2268 15.61 55.8608 15.772 55.5848 16.096ZM67.7533 12.55C68.9533 12.55 69.9493 13.006 70.7413 13.918C71.5453 14.83 71.9473 15.946 71.9473 17.266V20.434C71.9473 20.71 71.9353 20.92 71.9113 21.064C71.8993 21.196 71.8453 21.352 71.7493 21.532C71.5933 21.844 71.1313 22 70.3633 22C69.6313 22 69.1753 21.844 68.9953 21.532C68.8993 21.352 68.8393 21.19 68.8153 21.046C68.8033 20.902 68.7973 20.686 68.7973 20.398V17.248C68.7973 16.756 68.6593 16.372 68.3833 16.096C68.1073 15.82 67.7533 15.682 67.3213 15.682C66.9013 15.682 66.5293 15.814 66.2053 16.078C65.8813 16.33 65.6953 16.618 65.6473 16.942V20.434C65.6473 20.71 65.6353 20.92 65.6113 21.064C65.5993 21.196 65.5453 21.352 65.4493 21.532C65.2933 21.844 64.8313 22 64.0633 22C63.3073 22 62.8453 21.838 62.6773 21.514C62.5933 21.334 62.5393 21.178 62.5153 21.046C62.5033 20.914 62.4973 20.704 62.4973 20.416V9.652C62.4973 9.376 62.5033 9.172 62.5153 9.04C62.5393 8.896 62.5933 8.74 62.6773 8.572C62.8453 8.248 63.3133 8.086 64.0813 8.086C64.8373 8.086 65.2933 8.248 65.4493 8.572C65.5453 8.752 65.5993 8.914 65.6113 9.058C65.6353 9.19 65.6473 9.394 65.6473 9.67V13.648C66.2473 12.916 66.9493 12.55 67.7533 12.55ZM79.5518 13.522C79.6238 12.85 80.0978 12.514 80.9738 12.514C81.4418 12.514 81.7898 12.55 82.0178 12.622C82.2458 12.694 82.4018 12.82 82.4858 13C82.5818 13.18 82.6358 13.342 82.6478 13.486C82.6718 13.618 82.6838 13.822 82.6838 14.098V20.398C82.6838 20.674 82.6718 20.884 82.6478 21.028C82.6358 21.16 82.5878 21.316 82.5038 21.496C82.3358 21.808 81.9218 21.964 81.2618 21.964C80.6138 21.964 80.1758 21.886 79.9478 21.73C79.7318 21.562 79.6058 21.322 79.5698 21.01C79.1258 21.646 78.3818 21.964 77.3378 21.964C76.3058 21.964 75.3458 21.49 74.4578 20.542C73.5698 19.594 73.1258 18.496 73.1258 17.248C73.1258 15.988 73.5698 14.89 74.4578 13.954C75.3578 13.006 76.3418 12.532 77.4098 12.532C77.8178 12.532 78.1898 12.604 78.5258 12.748C78.8618 12.892 79.0958 13.03 79.2278 13.162C79.3598 13.282 79.4678 13.402 79.5518 13.522ZM76.2758 17.266C76.2758 17.662 76.4318 18.022 76.7438 18.346C77.0558 18.658 77.4338 18.814 77.8778 18.814C78.3218 18.814 78.6878 18.652 78.9758 18.328C79.2758 18.004 79.4258 17.65 79.4258 17.266C79.4258 16.87 79.2818 16.504 78.9938 16.168C78.7178 15.832 78.3398 15.664 77.8598 15.664C77.3918 15.664 77.0078 15.832 76.7078 16.168C76.4198 16.504 76.2758 16.87 76.2758 17.266ZM93.4128 12.73C94.0368 13.102 94.3488 13.498 94.3488 13.918C94.3488 14.158 94.2288 14.488 93.9888 14.908L90.2628 21.298C90.1428 21.502 89.9508 21.688 89.6868 21.856C89.4228 22.012 89.1588 22.09 88.8948 22.09C88.6428 22.09 88.3968 22.03 88.1568 21.91C87.9288 21.778 87.7668 21.646 87.6708 21.514L87.5088 21.316L83.7648 14.908C83.5248 14.512 83.4048 14.188 83.4048 13.936C83.4048 13.504 83.7168 13.102 84.3408 12.73C84.7968 12.466 85.1568 12.334 85.4208 12.334C85.6848 12.334 85.8888 12.418 86.0328 12.586C86.1888 12.742 86.3508 12.982 86.5188 13.306L88.8768 17.842L91.2348 13.306C91.3668 13.078 91.4628 12.916 91.5228 12.82C91.5948 12.712 91.7028 12.61 91.8468 12.514C91.9908 12.406 92.1828 12.352 92.4228 12.352C92.6628 12.352 92.9928 12.478 93.4128 12.73ZM100.944 13.522C101.016 12.85 101.49 12.514 102.366 12.514C102.834 12.514 103.182 12.55 103.41 12.622C103.638 12.694 103.794 12.82 103.878 13C103.974 13.18 104.028 13.342 104.04 13.486C104.064 13.618 104.076 13.822 104.076 14.098V20.398C104.076 20.674 104.064 20.884 104.04 21.028C104.028 21.16 103.98 21.316 103.896 21.496C103.728 21.808 103.314 21.964 102.654 21.964C102.006 21.964 101.568 21.886 101.34 21.73C101.124 21.562 100.998 21.322 100.962 21.01C100.518 21.646 99.7744 21.964 98.7304 21.964C97.6984 21.964 96.7384 21.49 95.8504 20.542C94.9624 19.594 94.5184 18.496 94.5184 17.248C94.5184 15.988 94.9624 14.89 95.8504 13.954C96.7504 13.006 97.7344 12.532 98.8024 12.532C99.2104 12.532 99.5824 12.604 99.9184 12.748C100.254 12.892 100.488 13.03 100.62 13.162C100.752 13.282 100.86 13.402 100.944 13.522ZM97.6684 17.266C97.6684 17.662 97.8244 18.022 98.1364 18.346C98.4484 18.658 98.8264 18.814 99.2704 18.814C99.7144 18.814 100.08 18.652 100.368 18.328C100.668 18.004 100.818 17.65 100.818 17.266C100.818 16.87 100.674 16.504 100.386 16.168C100.11 15.832 99.7324 15.664 99.2524 15.664C98.7844 15.664 98.4004 15.832 98.1004 16.168C97.8124 16.504 97.6684 16.87 97.6684 17.266ZM111.955 12.622C112.183 12.694 112.369 12.82 112.513 13C112.669 13.168 112.747 13.444 112.747 13.828C112.747 14.212 112.633 14.632 112.405 15.088C112.177 15.544 111.847 15.772 111.415 15.772C111.199 15.772 110.989 15.724 110.785 15.628C110.593 15.532 110.335 15.484 110.011 15.484C109.687 15.484 109.381 15.598 109.093 15.826C108.817 16.054 108.679 16.33 108.679 16.654V20.434C108.679 20.71 108.667 20.92 108.643 21.064C108.631 21.196 108.577 21.352 108.481 21.532C108.301 21.844 107.833 22 107.077 22C106.501 22 106.087 21.898 105.835 21.694C105.643 21.526 105.535 21.268 105.511 20.92C105.511 20.8 105.511 20.626 105.511 20.398V14.08C105.511 13.804 105.517 13.6 105.529 13.468C105.553 13.324 105.607 13.168 105.691 13C105.859 12.676 106.327 12.514 107.095 12.514C107.815 12.514 108.265 12.652 108.445 12.928C108.577 13.12 108.643 13.318 108.643 13.522C108.703 13.438 108.787 13.336 108.895 13.216C109.015 13.096 109.261 12.934 109.633 12.73C110.005 12.526 110.329 12.424 110.605 12.424C110.893 12.424 111.133 12.442 111.325 12.478C111.517 12.502 111.727 12.55 111.955 12.622ZM113.458 21.154C113.23 21.01 113.116 20.782 113.116 20.47C113.116 20.158 113.344 19.684 113.8 19.048C113.932 18.844 114.142 18.742 114.43 18.742C114.73 18.742 115.132 18.892 115.636 19.192C116.14 19.48 116.596 19.624 117.004 19.624C117.736 19.624 118.102 19.48 118.102 19.192C118.102 18.964 117.7 18.796 116.896 18.688C116.14 18.58 115.39 18.298 114.646 17.842C114.298 17.626 114.01 17.29 113.782 16.834C113.554 16.366 113.44 15.814 113.44 15.178C113.44 13.282 114.742 12.334 117.346 12.334C118.198 12.334 119.074 12.538 119.974 12.946C120.394 13.138 120.604 13.378 120.604 13.666C120.604 13.954 120.472 14.308 120.208 14.728C119.944 15.148 119.674 15.358 119.398 15.358C119.254 15.358 118.984 15.268 118.588 15.088C118.204 14.908 117.784 14.818 117.328 14.818C116.62 14.818 116.266 14.95 116.266 15.214C116.266 15.574 116.674 15.808 117.49 15.916C118.282 16 119.05 16.228 119.794 16.6C120.142 16.768 120.43 17.062 120.658 17.482C120.898 17.89 121.018 18.406 121.018 19.03C121.018 19.654 120.898 20.188 120.658 20.632C120.43 21.064 120.106 21.388 119.686 21.604C118.918 21.976 117.952 22.162 116.788 22.162C115.636 22.162 114.526 21.826 113.458 21.154Z" fill="#21D2F9"/>
</svg>
